<svg xmlns="http://www.w3.org/2000/svg" width="640" height="400" viewBox="0 0 640 400" fill="none">
  <rect x="40" y="40" width="560" height="320" rx="18" fill="#F7F8FC" stroke="#0B1220" stroke-opacity="0.55" stroke-width="4" />
  <rect x="60" y="60" width="520" height="280" rx="14" fill="#FFFFFF" stroke="#0B1220" stroke-opacity="0.35" stroke-width="2" />
  <rect x="96" y="106" width="140" height="170" rx="16" fill="#0B1220" opacity="0.22" />
  <circle cx="166" cy="162" r="34" fill="#0B1220" opacity="0.35" />
  <path d="M120 250c20-26 40-39 60-39s40 13 60 39v16H120v-16z" fill="#0B1220" opacity="0.35" />
  <rect x="270" y="112" width="260" height="20" rx="10" fill="#0B1220" opacity="0.55" />
  <rect x="270" y="148" width="220" height="14" rx="7" fill="#0B1220" opacity="0.45" />
  <rect x="270" y="176" width="250" height="14" rx="7" fill="#0B1220" opacity="0.45" />
  <rect x="270" y="204" width="200" height="14" rx="7" fill="#0B1220" opacity="0.45" />
  <rect x="270" y="244" width="260" height="14" rx="7" fill="#0B1220" opacity="0.4" />
  <rect x="270" y="270" width="160" height="14" rx="7" fill="#0B1220" opacity="0.4" />
</svg>
